<mxfile host="app.diagrams.net" modified="2023-11-13T05:07:37.281Z" agent="Mozilla/5.0 (Windows NT 10.0; Win64; x64) AppleWebKit/537.36 (KHTML, like Gecko) Chrome/119.0.0.0 Safari/537.36" etag="kb80ROMl3__QB7tAQk_Z" version="22.1.0" type="github">
  <diagram name="第 1 页" id="fX7eo4I7FUO_w7fjt9YY">
    <mxGraphModel dx="1050" dy="635" grid="1" gridSize="10" guides="1" tooltips="1" connect="1" arrows="1" fold="1" page="1" pageScale="1" pageWidth="827" pageHeight="1169" math="0" shadow="0">
      <root>
        <mxCell id="0" />
        <mxCell id="1" parent="0" />
        <mxCell id="NiZo0l6nzHmo3PtQeFX--1" value="用户" style="shape=umlActor;verticalLabelPosition=bottom;verticalAlign=top;html=1;outlineConnect=0;" vertex="1" parent="1">
          <mxGeometry x="150" y="220" width="30" height="60" as="geometry" />
        </mxCell>
        <mxCell id="NiZo0l6nzHmo3PtQeFX--10" style="rounded=0;orthogonalLoop=1;jettySize=auto;html=1;exitX=1;exitY=0.3333333333333333;exitDx=0;exitDy=0;exitPerimeter=0;entryX=0;entryY=0.5;entryDx=0;entryDy=0;" edge="1" parent="1" source="NiZo0l6nzHmo3PtQeFX--2" target="NiZo0l6nzHmo3PtQeFX--6">
          <mxGeometry relative="1" as="geometry" />
        </mxCell>
        <mxCell id="NiZo0l6nzHmo3PtQeFX--11" style="rounded=0;orthogonalLoop=1;jettySize=auto;html=1;exitX=1;exitY=0.3333333333333333;exitDx=0;exitDy=0;exitPerimeter=0;entryX=0;entryY=0.5;entryDx=0;entryDy=0;" edge="1" parent="1" source="NiZo0l6nzHmo3PtQeFX--2" target="NiZo0l6nzHmo3PtQeFX--7">
          <mxGeometry relative="1" as="geometry" />
        </mxCell>
        <mxCell id="NiZo0l6nzHmo3PtQeFX--2" value="客户" style="shape=umlActor;verticalLabelPosition=bottom;verticalAlign=top;html=1;outlineConnect=0;" vertex="1" parent="1">
          <mxGeometry x="240" y="150" width="30" height="60" as="geometry" />
        </mxCell>
        <mxCell id="NiZo0l6nzHmo3PtQeFX--5" style="rounded=0;orthogonalLoop=1;jettySize=auto;html=1;exitX=0;exitY=0.3333333333333333;exitDx=0;exitDy=0;exitPerimeter=0;endArrow=block;endFill=0;" edge="1" parent="1" source="NiZo0l6nzHmo3PtQeFX--3">
          <mxGeometry relative="1" as="geometry">
            <mxPoint x="180" y="240" as="targetPoint" />
          </mxGeometry>
        </mxCell>
        <mxCell id="NiZo0l6nzHmo3PtQeFX--12" style="rounded=0;orthogonalLoop=1;jettySize=auto;html=1;exitX=1;exitY=0.3333333333333333;exitDx=0;exitDy=0;exitPerimeter=0;entryX=0;entryY=0.5;entryDx=0;entryDy=0;" edge="1" parent="1" source="NiZo0l6nzHmo3PtQeFX--3" target="NiZo0l6nzHmo3PtQeFX--9">
          <mxGeometry relative="1" as="geometry" />
        </mxCell>
        <mxCell id="NiZo0l6nzHmo3PtQeFX--3" value="运维人员" style="shape=umlActor;verticalLabelPosition=bottom;verticalAlign=top;html=1;outlineConnect=0;" vertex="1" parent="1">
          <mxGeometry x="240" y="290" width="30" height="60" as="geometry" />
        </mxCell>
        <mxCell id="NiZo0l6nzHmo3PtQeFX--4" style="rounded=0;orthogonalLoop=1;jettySize=auto;html=1;exitX=0;exitY=0.3333333333333333;exitDx=0;exitDy=0;exitPerimeter=0;entryX=1;entryY=0.3333333333333333;entryDx=0;entryDy=0;entryPerimeter=0;endArrow=block;endFill=0;" edge="1" parent="1" source="NiZo0l6nzHmo3PtQeFX--2" target="NiZo0l6nzHmo3PtQeFX--1">
          <mxGeometry relative="1" as="geometry" />
        </mxCell>
        <mxCell id="NiZo0l6nzHmo3PtQeFX--6" value="1. APK静态分析" style="ellipse;whiteSpace=wrap;html=1;" vertex="1" parent="1">
          <mxGeometry x="354" y="90" width="120" height="80" as="geometry" />
        </mxCell>
        <mxCell id="NiZo0l6nzHmo3PtQeFX--7" value="2. 基本信息管理" style="ellipse;whiteSpace=wrap;html=1;" vertex="1" parent="1">
          <mxGeometry x="354" y="200" width="120" height="80" as="geometry" />
        </mxCell>
        <mxCell id="NiZo0l6nzHmo3PtQeFX--13" style="rounded=0;orthogonalLoop=1;jettySize=auto;html=1;exitX=0;exitY=0.5;exitDx=0;exitDy=0;entryX=1;entryY=0.5;entryDx=0;entryDy=0;dashed=1;" edge="1" parent="1" source="NiZo0l6nzHmo3PtQeFX--8" target="NiZo0l6nzHmo3PtQeFX--6">
          <mxGeometry relative="1" as="geometry" />
        </mxCell>
        <mxCell id="NiZo0l6nzHmo3PtQeFX--14" style="rounded=0;orthogonalLoop=1;jettySize=auto;html=1;exitX=0;exitY=0.5;exitDx=0;exitDy=0;entryX=1;entryY=0.5;entryDx=0;entryDy=0;dashed=1;" edge="1" parent="1" source="NiZo0l6nzHmo3PtQeFX--8" target="NiZo0l6nzHmo3PtQeFX--7">
          <mxGeometry relative="1" as="geometry" />
        </mxCell>
        <mxCell id="NiZo0l6nzHmo3PtQeFX--15" style="rounded=0;orthogonalLoop=1;jettySize=auto;html=1;exitX=0;exitY=0.5;exitDx=0;exitDy=0;entryX=1;entryY=0.5;entryDx=0;entryDy=0;dashed=1;" edge="1" parent="1" source="NiZo0l6nzHmo3PtQeFX--8" target="NiZo0l6nzHmo3PtQeFX--9">
          <mxGeometry relative="1" as="geometry" />
        </mxCell>
        <mxCell id="NiZo0l6nzHmo3PtQeFX--8" value="4. 身份认证" style="ellipse;whiteSpace=wrap;html=1;" vertex="1" parent="1">
          <mxGeometry x="550" y="210" width="120" height="80" as="geometry" />
        </mxCell>
        <mxCell id="NiZo0l6nzHmo3PtQeFX--9" value="3. 后台报表管理" style="ellipse;whiteSpace=wrap;html=1;" vertex="1" parent="1">
          <mxGeometry x="354" y="320" width="120" height="80" as="geometry" />
        </mxCell>
        <mxCell id="NiZo0l6nzHmo3PtQeFX--16" value="&amp;lt;&amp;lt;extend&amp;gt;&amp;gt;" style="text;html=1;strokeColor=none;fillColor=none;align=center;verticalAlign=middle;whiteSpace=wrap;rounded=0;rotation=60;" vertex="1" parent="1">
          <mxGeometry x="490" y="175" width="70" height="25" as="geometry" />
        </mxCell>
        <mxCell id="NiZo0l6nzHmo3PtQeFX--17" value="&amp;lt;&amp;lt;extend&amp;gt;&amp;gt;" style="text;html=1;strokeColor=none;fillColor=none;align=center;verticalAlign=middle;whiteSpace=wrap;rounded=0;rotation=10;" vertex="1" parent="1">
          <mxGeometry x="480" y="220" width="70" height="25" as="geometry" />
        </mxCell>
        <mxCell id="NiZo0l6nzHmo3PtQeFX--19" value="&amp;lt;&amp;lt;extend&amp;gt;&amp;gt;" style="text;html=1;strokeColor=none;fillColor=none;align=center;verticalAlign=middle;whiteSpace=wrap;rounded=0;rotation=-60;" vertex="1" parent="1">
          <mxGeometry x="490" y="290" width="70" height="25" as="geometry" />
        </mxCell>
      </root>
    </mxGraphModel>
  </diagram>
</mxfile>
